<mxfile host="app.diagrams.net" modified="2023-10-18T07:09:32.505Z" agent="Mozilla/5.0 (Windows NT 10.0; Win64; x64) AppleWebKit/537.36 (KHTML, like Gecko) Chrome/118.0.0.0 Safari/537.36" etag="BBTJM_0e4JBg3qc2wp5J" version="22.0.4" type="github">
  <diagram name="Page-1" id="RJbHu5sxq5I47JQGmV-o">
    <mxGraphModel dx="3176" dy="1728" grid="1" gridSize="10" guides="1" tooltips="1" connect="1" arrows="1" fold="1" page="1" pageScale="1" pageWidth="850" pageHeight="1100" math="0" shadow="0">
      <root>
        <mxCell id="0" />
        <mxCell id="1" parent="0" />
        <mxCell id="B1Z8W7b9JruNJQS_tEDy-1" value="" style="shape=umlLifeline;perimeter=lifelinePerimeter;whiteSpace=wrap;html=1;container=1;dropTarget=0;collapsible=0;recursiveResize=0;outlineConnect=0;portConstraint=eastwest;newEdgeStyle={&quot;curved&quot;:0,&quot;rounded&quot;:0};participant=umlActor;fontColor=#00994D;fontSize=9;" parent="1" vertex="1">
          <mxGeometry x="50" y="60" width="20" height="990" as="geometry" />
        </mxCell>
        <mxCell id="B1Z8W7b9JruNJQS_tEDy-2" value="Identity" style="shape=umlLifeline;perimeter=lifelinePerimeter;whiteSpace=wrap;html=1;container=1;dropTarget=0;collapsible=0;recursiveResize=0;outlineConnect=0;portConstraint=eastwest;newEdgeStyle={&quot;curved&quot;:0,&quot;rounded&quot;:0};fontColor=#00994D;fontSize=9;" parent="1" vertex="1">
          <mxGeometry x="180" y="30" width="100" height="1030" as="geometry" />
        </mxCell>
        <mxCell id="B1Z8W7b9JruNJQS_tEDy-6" value="" style="html=1;points=[[0,0,0,0,5],[0,1,0,0,-5],[1,0,0,0,5],[1,1,0,0,-5]];perimeter=orthogonalPerimeter;outlineConnect=0;targetShapes=umlLifeline;portConstraint=eastwest;newEdgeStyle={&quot;curved&quot;:0,&quot;rounded&quot;:0};fontColor=#00994D;fontSize=9;" parent="B1Z8W7b9JruNJQS_tEDy-2" vertex="1">
          <mxGeometry x="45" y="97" width="10" height="80" as="geometry" />
        </mxCell>
        <mxCell id="B1Z8W7b9JruNJQS_tEDy-16" value="" style="html=1;points=[[0,0,0,0,5],[0,1,0,0,-5],[1,0,0,0,5],[1,1,0,0,-5]];perimeter=orthogonalPerimeter;outlineConnect=0;targetShapes=umlLifeline;portConstraint=eastwest;newEdgeStyle={&quot;curved&quot;:0,&quot;rounded&quot;:0};fontColor=#00994D;fontSize=9;" parent="B1Z8W7b9JruNJQS_tEDy-2" vertex="1">
          <mxGeometry x="45" y="250" width="10" height="600" as="geometry" />
        </mxCell>
        <mxCell id="B1Z8W7b9JruNJQS_tEDy-54" value="" style="html=1;points=[[0,0,0,0,5],[0,1,0,0,-5],[1,0,0,0,5],[1,1,0,0,-5]];perimeter=orthogonalPerimeter;outlineConnect=0;targetShapes=umlLifeline;portConstraint=eastwest;newEdgeStyle={&quot;curved&quot;:0,&quot;rounded&quot;:0};fontColor=#00994D;fontSize=9;" parent="B1Z8W7b9JruNJQS_tEDy-2" vertex="1">
          <mxGeometry x="45" y="880" width="10" height="80" as="geometry" />
        </mxCell>
        <mxCell id="B1Z8W7b9JruNJQS_tEDy-3" value="iSprint" style="shape=umlLifeline;perimeter=lifelinePerimeter;whiteSpace=wrap;html=1;container=1;dropTarget=0;collapsible=0;recursiveResize=0;outlineConnect=0;portConstraint=eastwest;newEdgeStyle={&quot;curved&quot;:0,&quot;rounded&quot;:0};fontColor=#00994D;fontSize=9;" parent="1" vertex="1">
          <mxGeometry x="325" y="30" width="100" height="1020" as="geometry" />
        </mxCell>
        <mxCell id="B1Z8W7b9JruNJQS_tEDy-10" value="" style="html=1;points=[[0,0,0,0,5],[0,1,0,0,-5],[1,0,0,0,5],[1,1,0,0,-5]];perimeter=orthogonalPerimeter;outlineConnect=0;targetShapes=umlLifeline;portConstraint=eastwest;newEdgeStyle={&quot;curved&quot;:0,&quot;rounded&quot;:0};fontColor=#00994D;fontSize=9;" parent="B1Z8W7b9JruNJQS_tEDy-3" vertex="1">
          <mxGeometry x="45" y="97" width="10" height="80" as="geometry" />
        </mxCell>
        <mxCell id="B1Z8W7b9JruNJQS_tEDy-19" value="" style="html=1;points=[[0,0,0,0,5],[0,1,0,0,-5],[1,0,0,0,5],[1,1,0,0,-5]];perimeter=orthogonalPerimeter;outlineConnect=0;targetShapes=umlLifeline;portConstraint=eastwest;newEdgeStyle={&quot;curved&quot;:0,&quot;rounded&quot;:0};fontColor=#00994D;fontSize=9;" parent="B1Z8W7b9JruNJQS_tEDy-3" vertex="1">
          <mxGeometry x="45" y="250" width="10" height="80" as="geometry" />
        </mxCell>
        <mxCell id="B1Z8W7b9JruNJQS_tEDy-43" value="" style="html=1;points=[[0,0,0,0,5],[0,1,0,0,-5],[1,0,0,0,5],[1,1,0,0,-5]];perimeter=orthogonalPerimeter;outlineConnect=0;targetShapes=umlLifeline;portConstraint=eastwest;newEdgeStyle={&quot;curved&quot;:0,&quot;rounded&quot;:0};fontColor=#00994D;fontSize=9;" parent="B1Z8W7b9JruNJQS_tEDy-3" vertex="1">
          <mxGeometry x="45" y="670" width="10" height="170" as="geometry" />
        </mxCell>
        <mxCell id="B1Z8W7b9JruNJQS_tEDy-52" value="" style="html=1;points=[[0,0,0,0,5],[0,1,0,0,-5],[1,0,0,0,5],[1,1,0,0,-5]];perimeter=orthogonalPerimeter;outlineConnect=0;targetShapes=umlLifeline;portConstraint=eastwest;newEdgeStyle={&quot;curved&quot;:0,&quot;rounded&quot;:0};fontColor=#00994D;fontSize=9;" parent="B1Z8W7b9JruNJQS_tEDy-3" vertex="1">
          <mxGeometry x="45" y="880" width="10" height="60" as="geometry" />
        </mxCell>
        <mxCell id="B1Z8W7b9JruNJQS_tEDy-4" value="RDS" style="shape=umlLifeline;perimeter=lifelinePerimeter;whiteSpace=wrap;html=1;container=1;dropTarget=0;collapsible=0;recursiveResize=0;outlineConnect=0;portConstraint=eastwest;newEdgeStyle={&quot;curved&quot;:0,&quot;rounded&quot;:0};fontColor=#00994D;fontSize=9;" parent="1" vertex="1">
          <mxGeometry x="490" y="30" width="100" height="990" as="geometry" />
        </mxCell>
        <mxCell id="B1Z8W7b9JruNJQS_tEDy-22" value="" style="html=1;points=[[0,0,0,0,5],[0,1,0,0,-5],[1,0,0,0,5],[1,1,0,0,-5]];perimeter=orthogonalPerimeter;outlineConnect=0;targetShapes=umlLifeline;portConstraint=eastwest;newEdgeStyle={&quot;curved&quot;:0,&quot;rounded&quot;:0};fontColor=#00994D;fontSize=9;" parent="B1Z8W7b9JruNJQS_tEDy-4" vertex="1">
          <mxGeometry x="45" y="350" width="10" height="80" as="geometry" />
        </mxCell>
        <mxCell id="B1Z8W7b9JruNJQS_tEDy-5" value="Entity" style="shape=umlLifeline;perimeter=lifelinePerimeter;whiteSpace=wrap;html=1;container=1;dropTarget=0;collapsible=0;recursiveResize=0;outlineConnect=0;portConstraint=eastwest;newEdgeStyle={&quot;curved&quot;:0,&quot;rounded&quot;:0};fontColor=#00994D;fontSize=9;" parent="1" vertex="1">
          <mxGeometry x="670" y="30" width="100" height="990" as="geometry" />
        </mxCell>
        <mxCell id="B1Z8W7b9JruNJQS_tEDy-37" value="" style="html=1;points=[[0,0,0,0,5],[0,1,0,0,-5],[1,0,0,0,5],[1,1,0,0,-5]];perimeter=orthogonalPerimeter;outlineConnect=0;targetShapes=umlLifeline;portConstraint=eastwest;newEdgeStyle={&quot;curved&quot;:0,&quot;rounded&quot;:0};fontColor=#00994D;fontSize=9;" parent="B1Z8W7b9JruNJQS_tEDy-5" vertex="1">
          <mxGeometry x="45" y="550" width="10" height="80" as="geometry" />
        </mxCell>
        <mxCell id="B1Z8W7b9JruNJQS_tEDy-7" value="&lt;font style=&quot;font-size: 9px;&quot;&gt;identity/v1/public/preauthenticate(GET)&lt;/font&gt;" style="html=1;verticalAlign=bottom;endArrow=block;curved=0;rounded=0;entryX=0;entryY=0;entryDx=0;entryDy=5;fontColor=#00994D;fontSize=9;" parent="1" source="B1Z8W7b9JruNJQS_tEDy-1" target="B1Z8W7b9JruNJQS_tEDy-6" edge="1">
          <mxGeometry relative="1" as="geometry">
            <mxPoint x="130" y="185" as="sourcePoint" />
          </mxGeometry>
        </mxCell>
        <mxCell id="B1Z8W7b9JruNJQS_tEDy-8" value="return" style="html=1;verticalAlign=bottom;endArrow=open;dashed=1;endSize=8;curved=0;rounded=0;exitX=0;exitY=1;exitDx=0;exitDy=-5;fontColor=#00994D;fontSize=9;" parent="1" source="B1Z8W7b9JruNJQS_tEDy-6" target="B1Z8W7b9JruNJQS_tEDy-1" edge="1">
          <mxGeometry relative="1" as="geometry">
            <mxPoint x="130" y="255" as="targetPoint" />
          </mxGeometry>
        </mxCell>
        <mxCell id="B1Z8W7b9JruNJQS_tEDy-11" value="&lt;font style=&quot;font-size: 9px;&quot;&gt;authn/preauthenticate&lt;/font&gt;" style="html=1;verticalAlign=bottom;endArrow=block;curved=0;rounded=0;entryX=0;entryY=0;entryDx=0;entryDy=5;fontColor=#00994D;fontSize=9;" parent="1" source="B1Z8W7b9JruNJQS_tEDy-6" target="B1Z8W7b9JruNJQS_tEDy-10" edge="1">
          <mxGeometry relative="1" as="geometry">
            <mxPoint x="220" y="172" as="sourcePoint" />
          </mxGeometry>
        </mxCell>
        <mxCell id="B1Z8W7b9JruNJQS_tEDy-12" value="&lt;font style=&quot;font-size: 9px;&quot;&gt;challengeToken,&lt;br style=&quot;font-size: 9px;&quot;&gt;e2eeSid&lt;br style=&quot;font-size: 9px;&quot;&gt;pubKey&lt;br style=&quot;font-size: 9px;&quot;&gt;serverRandom&lt;/font&gt;" style="html=1;verticalAlign=bottom;endArrow=open;dashed=1;endSize=8;curved=0;rounded=0;exitX=0;exitY=1;exitDx=0;exitDy=-5;entryX=1;entryY=1;entryDx=0;entryDy=-5;entryPerimeter=0;fontColor=#00994D;fontSize=9;" parent="1" source="B1Z8W7b9JruNJQS_tEDy-10" target="B1Z8W7b9JruNJQS_tEDy-6" edge="1">
          <mxGeometry relative="1" as="geometry">
            <mxPoint x="220" y="242" as="targetPoint" />
          </mxGeometry>
        </mxCell>
        <mxCell id="B1Z8W7b9JruNJQS_tEDy-17" value="&lt;font style=&quot;font-size: 9px;&quot;&gt;identity/v1/login(POST)&lt;br style=&quot;font-size: 9px;&quot;&gt;challengeToken,&lt;br style=&quot;font-size: 9px;&quot;&gt;email&lt;br style=&quot;font-size: 9px;&quot;&gt;password &lt;br style=&quot;font-size: 9px;&quot;&gt;(encrypt using params &lt;br&gt;from preauthenticate)&lt;/font&gt;" style="html=1;verticalAlign=bottom;endArrow=block;curved=0;rounded=0;entryX=0;entryY=0;entryDx=0;entryDy=5;fontColor=#00994D;fontSize=9;" parent="1" source="B1Z8W7b9JruNJQS_tEDy-1" target="B1Z8W7b9JruNJQS_tEDy-16" edge="1">
          <mxGeometry relative="1" as="geometry">
            <mxPoint x="50" y="325" as="sourcePoint" />
          </mxGeometry>
        </mxCell>
        <mxCell id="B1Z8W7b9JruNJQS_tEDy-20" value="&lt;font style=&quot;font-size: 9px;&quot;&gt;query/user/findById&lt;br style=&quot;font-size: 9px;&quot;&gt;pass -&amp;gt; email id&lt;br style=&quot;font-size: 9px;&quot;&gt;&lt;/font&gt;" style="html=1;verticalAlign=bottom;endArrow=block;curved=0;rounded=0;exitX=1;exitY=0;exitDx=0;exitDy=5;exitPerimeter=0;entryX=0;entryY=0;entryDx=0;entryDy=5;entryPerimeter=0;fontColor=#00994D;fontSize=9;" parent="1" source="B1Z8W7b9JruNJQS_tEDy-16" target="B1Z8W7b9JruNJQS_tEDy-19" edge="1">
          <mxGeometry relative="1" as="geometry">
            <mxPoint x="260" y="330" as="sourcePoint" />
            <mxPoint x="330" y="325" as="targetPoint" />
          </mxGeometry>
        </mxCell>
        <mxCell id="B1Z8W7b9JruNJQS_tEDy-21" value="&lt;span style=&quot;font-size: 9px;&quot;&gt;get user details&lt;/span&gt;" style="html=1;verticalAlign=bottom;endArrow=open;dashed=1;endSize=8;curved=0;rounded=0;exitX=0;exitY=1;exitDx=0;exitDy=-5;entryX=1;entryY=1;entryDx=0;entryDy=-5;entryPerimeter=0;fontColor=#00994D;fontSize=9;" parent="1" edge="1">
          <mxGeometry relative="1" as="geometry">
            <mxPoint x="234" y="340" as="targetPoint" />
            <mxPoint x="364" y="340" as="sourcePoint" />
          </mxGeometry>
        </mxCell>
        <mxCell id="B1Z8W7b9JruNJQS_tEDy-23" value="&lt;font style=&quot;font-size: 9px;&quot;&gt;find the user record using &lt;br style=&quot;font-size: 9px;&quot;&gt;uuid from isprint&lt;br style=&quot;font-size: 9px;&quot;&gt;&lt;/font&gt;" style="html=1;verticalAlign=bottom;endArrow=block;curved=0;rounded=0;fontColor=#00994D;fontSize=9;" parent="1" edge="1">
          <mxGeometry relative="1" as="geometry">
            <mxPoint x="235" y="447" as="sourcePoint" />
            <mxPoint x="535" y="447" as="targetPoint" />
          </mxGeometry>
        </mxCell>
        <mxCell id="B1Z8W7b9JruNJQS_tEDy-25" value="return" style="html=1;verticalAlign=bottom;endArrow=open;dashed=1;endSize=8;rounded=0;entryX=0.925;entryY=0.55;entryDx=0;entryDy=0;entryPerimeter=0;strokeColor=default;edgeStyle=orthogonalEdgeStyle;fontColor=#00994D;fontSize=9;" parent="1" target="B1Z8W7b9JruNJQS_tEDy-28" edge="1">
          <mxGeometry x="0.0044" relative="1" as="geometry">
            <mxPoint x="535" y="480" as="sourcePoint" />
            <mxPoint x="420" y="510" as="targetPoint" />
            <Array as="points">
              <mxPoint x="535" y="481" />
              <mxPoint x="478" y="481" />
              <mxPoint x="478" y="480" />
              <mxPoint x="470" y="480" />
              <mxPoint x="470" y="545" />
            </Array>
            <mxPoint as="offset" />
          </mxGeometry>
        </mxCell>
        <mxCell id="B1Z8W7b9JruNJQS_tEDy-30" style="rounded=0;orthogonalLoop=1;jettySize=auto;html=1;exitX=0;exitY=0.5;exitDx=0;exitDy=0;fontColor=#00994D;fontSize=9;" parent="1" source="B1Z8W7b9JruNJQS_tEDy-28" target="B1Z8W7b9JruNJQS_tEDy-16" edge="1">
          <mxGeometry relative="1" as="geometry" />
        </mxCell>
        <mxCell id="B1Z8W7b9JruNJQS_tEDy-31" style="edgeStyle=orthogonalEdgeStyle;rounded=0;orthogonalLoop=1;jettySize=auto;html=1;exitX=0.5;exitY=0;exitDx=0;exitDy=0;dashed=1;fontColor=#00994D;fontSize=9;" parent="1" source="B1Z8W7b9JruNJQS_tEDy-28" target="B1Z8W7b9JruNJQS_tEDy-1" edge="1">
          <mxGeometry relative="1" as="geometry">
            <Array as="points">
              <mxPoint x="360" y="470" />
            </Array>
          </mxGeometry>
        </mxCell>
        <mxCell id="B1Z8W7b9JruNJQS_tEDy-28" value="&lt;font style=&quot;font-size: 9px;&quot;&gt;Check if the uuid &lt;br style=&quot;font-size: 9px;&quot;&gt;is available and&lt;br style=&quot;font-size: 9px;&quot;&gt;&amp;nbsp;is active&lt;/font&gt;" style="rhombus;whiteSpace=wrap;html=1;fontColor=#00994D;fontSize=9;" parent="1" vertex="1">
          <mxGeometry x="300" y="490" width="120" height="100" as="geometry" />
        </mxCell>
        <mxCell id="B1Z8W7b9JruNJQS_tEDy-32" value="No" style="text;html=1;align=center;verticalAlign=middle;resizable=0;points=[];autosize=1;strokeColor=none;fillColor=none;fontColor=#00994D;fontSize=9;" parent="1" vertex="1">
          <mxGeometry x="300" y="475" width="40" height="20" as="geometry" />
        </mxCell>
        <mxCell id="B1Z8W7b9JruNJQS_tEDy-33" value="Yes" style="text;html=1;align=center;verticalAlign=middle;resizable=0;points=[];autosize=1;strokeColor=none;fillColor=none;fontColor=#00994D;fontSize=9;" parent="1" vertex="1">
          <mxGeometry x="250" y="523" width="40" height="20" as="geometry" />
        </mxCell>
        <mxCell id="B1Z8W7b9JruNJQS_tEDy-35" value="&lt;span style=&quot;font-family: Helvetica; font-style: normal; font-variant-ligatures: normal; font-variant-caps: normal; font-weight: 400; letter-spacing: normal; orphans: 2; text-align: center; text-indent: 0px; text-transform: none; widows: 2; word-spacing: 0px; -webkit-text-stroke-width: 0px; background-color: rgb(251, 251, 251); text-decoration-thickness: initial; text-decoration-style: initial; text-decoration-color: initial; float: none; display: inline !important; font-size: 9px;&quot;&gt;&lt;font style=&quot;font-size: 9px;&quot;&gt;Show error in UI&lt;/font&gt;&lt;/span&gt;" style="text;whiteSpace=wrap;html=1;fontColor=#00994D;fontSize=9;" parent="1" vertex="1">
          <mxGeometry x="40" y="440" width="120" height="40" as="geometry" />
        </mxCell>
        <mxCell id="B1Z8W7b9JruNJQS_tEDy-38" value="&lt;font style=&quot;font-size: 9px;&quot;&gt;Get user details by NRIC&lt;/font&gt;" style="html=1;verticalAlign=bottom;endArrow=block;curved=0;rounded=0;fontColor=#00994D;fontSize=9;" parent="1" target="B1Z8W7b9JruNJQS_tEDy-37" edge="1">
          <mxGeometry relative="1" as="geometry">
            <mxPoint x="236" y="600" as="sourcePoint" />
            <mxPoint x="690" y="600" as="targetPoint" />
          </mxGeometry>
        </mxCell>
        <mxCell id="B1Z8W7b9JruNJQS_tEDy-44" style="rounded=0;orthogonalLoop=1;jettySize=auto;html=1;exitX=0;exitY=0.5;exitDx=0;exitDy=0;fontColor=#00994D;fontSize=9;entryX=0.5;entryY=0;entryDx=0;entryDy=0;edgeStyle=orthogonalEdgeStyle;" parent="1" source="B1Z8W7b9JruNJQS_tEDy-39" target="AhQzTiy_T6x-37D4Y0-p-4" edge="1">
          <mxGeometry relative="1" as="geometry" />
        </mxCell>
        <mxCell id="B1Z8W7b9JruNJQS_tEDy-39" value="&lt;font style=&quot;font-size: 9px;&quot;&gt;Check if user&amp;nbsp;&lt;br style=&quot;font-size: 9px;&quot;&gt;details available&lt;br style=&quot;font-size: 9px;&quot;&gt;in entity&lt;br style=&quot;font-size: 9px;&quot;&gt;&lt;/font&gt;" style="rhombus;whiteSpace=wrap;html=1;fontColor=#00994D;fontSize=9;" parent="1" vertex="1">
          <mxGeometry x="410" y="660" width="120" height="70" as="geometry" />
        </mxCell>
        <mxCell id="B1Z8W7b9JruNJQS_tEDy-40" value="return" style="html=1;verticalAlign=bottom;endArrow=open;dashed=1;endSize=8;rounded=0;entryX=1;entryY=0.5;entryDx=0;entryDy=0;edgeStyle=orthogonalEdgeStyle;fontColor=#00994D;fontSize=9;" parent="1" source="B1Z8W7b9JruNJQS_tEDy-37" target="B1Z8W7b9JruNJQS_tEDy-39" edge="1">
          <mxGeometry relative="1" as="geometry">
            <mxPoint x="680" y="670" as="sourcePoint" />
            <mxPoint x="600" y="670" as="targetPoint" />
          </mxGeometry>
        </mxCell>
        <mxCell id="B1Z8W7b9JruNJQS_tEDy-41" style="edgeStyle=orthogonalEdgeStyle;rounded=0;orthogonalLoop=1;jettySize=auto;html=1;exitX=0.5;exitY=0;exitDx=0;exitDy=0;dashed=1;fontColor=#00994D;fontSize=9;entryX=0.111;entryY=0.75;entryDx=0;entryDy=0;entryPerimeter=0;" parent="1" edge="1" target="B1Z8W7b9JruNJQS_tEDy-42">
          <mxGeometry relative="1" as="geometry">
            <mxPoint x="470" y="660" as="sourcePoint" />
            <mxPoint x="290" y="640" as="targetPoint" />
            <Array as="points">
              <mxPoint x="470" y="640" />
            </Array>
          </mxGeometry>
        </mxCell>
        <mxCell id="B1Z8W7b9JruNJQS_tEDy-42" value="&lt;font style=&quot;font-size: 9px;&quot;&gt;Show error in ui&lt;/font&gt;" style="text;html=1;align=center;verticalAlign=middle;resizable=0;points=[];autosize=1;strokeColor=none;fillColor=none;fontColor=#00994D;fontSize=9;" parent="1" vertex="1">
          <mxGeometry x="50" y="625" width="90" height="20" as="geometry" />
        </mxCell>
        <mxCell id="B1Z8W7b9JruNJQS_tEDy-45" value="&lt;font style=&quot;font-size: 9px;&quot;&gt;Get Mobile no&lt;/font&gt;" style="text;html=1;align=center;verticalAlign=middle;resizable=0;points=[];autosize=1;strokeColor=none;fillColor=none;fontColor=#00994D;fontSize=9;" parent="1" vertex="1">
          <mxGeometry x="280" y="675" width="80" height="20" as="geometry" />
        </mxCell>
        <mxCell id="B1Z8W7b9JruNJQS_tEDy-48" value="&lt;font style=&quot;font-size: 9px;&quot;&gt;authn/login&lt;br style=&quot;font-size: 9px;&quot;&gt;generate OTP using &lt;br style=&quot;font-size: 9px;&quot;&gt;entity mobile&lt;/font&gt;" style="html=1;verticalAlign=bottom;endArrow=block;rounded=0;fontColor=#00994D;fontSize=9;exitX=0.5;exitY=1;exitDx=0;exitDy=0;edgeStyle=orthogonalEdgeStyle;" parent="1" source="AhQzTiy_T6x-37D4Y0-p-4" target="B1Z8W7b9JruNJQS_tEDy-43" edge="1">
          <mxGeometry x="-0.3333" width="80" relative="1" as="geometry">
            <mxPoint x="260" y="840" as="sourcePoint" />
            <mxPoint x="320" y="830" as="targetPoint" />
            <Array as="points">
              <mxPoint x="300" y="840" />
            </Array>
            <mxPoint as="offset" />
          </mxGeometry>
        </mxCell>
        <mxCell id="B1Z8W7b9JruNJQS_tEDy-49" value="return" style="html=1;verticalAlign=bottom;endArrow=open;dashed=1;endSize=8;curved=0;rounded=0;fontColor=#00994D;fontSize=9;" parent="1" edge="1">
          <mxGeometry relative="1" as="geometry">
            <mxPoint x="365" y="860" as="sourcePoint" />
            <mxPoint x="235" y="860" as="targetPoint" />
          </mxGeometry>
        </mxCell>
        <mxCell id="B1Z8W7b9JruNJQS_tEDy-50" value="&lt;font style=&quot;font-size: 9px;&quot;&gt;Show OTP&lt;br style=&quot;font-size: 9px;&quot;&gt;&amp;nbsp;modal to user&lt;/font&gt;" style="html=1;verticalAlign=bottom;endArrow=open;dashed=1;endSize=8;curved=0;rounded=0;fontColor=#00994D;fontSize=9;" parent="1" edge="1">
          <mxGeometry x="1" y="-20" relative="1" as="geometry">
            <mxPoint x="225.5" y="860" as="sourcePoint" />
            <mxPoint x="60" y="860" as="targetPoint" />
            <mxPoint x="1" as="offset" />
          </mxGeometry>
        </mxCell>
        <mxCell id="B1Z8W7b9JruNJQS_tEDy-51" value="&lt;font style=&quot;font-size: 9px;&quot;&gt;send&amp;nbsp;&lt;br style=&quot;font-size: 9px;&quot;&gt;sessionToken&lt;/font&gt;" style="text;html=1;align=center;verticalAlign=middle;resizable=0;points=[];autosize=1;strokeColor=none;fillColor=none;fontColor=#00994D;fontSize=9;" parent="1" vertex="1">
          <mxGeometry x="70" y="830" width="80" height="40" as="geometry" />
        </mxCell>
        <mxCell id="B1Z8W7b9JruNJQS_tEDy-53" value="&lt;font style=&quot;font-size: 9px;&quot;&gt;login/validateOTP(Post)&lt;br style=&quot;font-size: 9px;&quot;&gt;otp, sessionToken&lt;/font&gt;" style="html=1;verticalAlign=bottom;endArrow=block;curved=0;rounded=0;fontColor=#00994D;fontSize=9;" parent="1" target="B1Z8W7b9JruNJQS_tEDy-54" edge="1">
          <mxGeometry width="80" relative="1" as="geometry">
            <mxPoint x="60" y="930" as="sourcePoint" />
            <mxPoint x="180" y="930" as="targetPoint" />
          </mxGeometry>
        </mxCell>
        <mxCell id="B1Z8W7b9JruNJQS_tEDy-56" value="&lt;font style=&quot;font-size: 9px;&quot;&gt;authn/login&lt;br style=&quot;font-size: 9px;&quot;&gt;validate OTP using &lt;br style=&quot;font-size: 9px;&quot;&gt;session token,otp,&lt;br style=&quot;font-size: 9px;&quot;&gt;segmentid,realmid&lt;br style=&quot;font-size: 9px;&quot;&gt;&lt;/font&gt;" style="html=1;verticalAlign=bottom;endArrow=block;curved=0;rounded=0;fontColor=#00994D;fontSize=9;" parent="1" edge="1">
          <mxGeometry x="0.0046" width="80" relative="1" as="geometry">
            <mxPoint x="236" y="931" as="sourcePoint" />
            <mxPoint x="371" y="931" as="targetPoint" />
            <mxPoint as="offset" />
          </mxGeometry>
        </mxCell>
        <mxCell id="B1Z8W7b9JruNJQS_tEDy-57" value="Success" style="html=1;verticalAlign=bottom;endArrow=open;dashed=1;endSize=8;curved=0;rounded=0;fontColor=#00994D;fontSize=9;exitX=0;exitY=1;exitDx=0;exitDy=-5;exitPerimeter=0;" parent="1" edge="1">
          <mxGeometry relative="1" as="geometry">
            <mxPoint x="370" y="960" as="sourcePoint" />
            <mxPoint x="235.5" y="960" as="targetPoint" />
          </mxGeometry>
        </mxCell>
        <mxCell id="B1Z8W7b9JruNJQS_tEDy-59" value="return" style="html=1;verticalAlign=bottom;endArrow=open;dashed=1;endSize=8;curved=0;rounded=0;fontSize=9;fontColor=#00994D;" parent="1" target="B1Z8W7b9JruNJQS_tEDy-1" edge="1">
          <mxGeometry relative="1" as="geometry">
            <mxPoint x="230.5" y="960" as="sourcePoint" />
            <mxPoint x="70" y="960" as="targetPoint" />
          </mxGeometry>
        </mxCell>
        <mxCell id="B1Z8W7b9JruNJQS_tEDy-61" value="&lt;font style=&quot;font-size: 9px;&quot;&gt;Show dashboard&lt;/font&gt;" style="text;html=1;align=center;verticalAlign=middle;resizable=0;points=[];autosize=1;strokeColor=none;fillColor=none;fontSize=9;fontColor=#00994D;" parent="1" vertex="1">
          <mxGeometry x="90" y="980" width="90" height="20" as="geometry" />
        </mxCell>
        <mxCell id="AhQzTiy_T6x-37D4Y0-p-4" value="&lt;font style=&quot;font-size: 9px;&quot;&gt;OTP generation limit exceeded?&lt;br style=&quot;font-size: 9px;&quot;&gt;&lt;/font&gt;" style="rhombus;whiteSpace=wrap;html=1;fontColor=#00994D;fontSize=9;" parent="1" vertex="1">
          <mxGeometry x="240" y="720" width="120" height="70" as="geometry" />
        </mxCell>
        <mxCell id="AhQzTiy_T6x-37D4Y0-p-6" style="rounded=0;orthogonalLoop=1;jettySize=auto;html=1;dashed=1;fontColor=#00994D;fontSize=9;exitX=0;exitY=0.5;exitDx=0;exitDy=0;" parent="1" source="AhQzTiy_T6x-37D4Y0-p-4" target="B1Z8W7b9JruNJQS_tEDy-1" edge="1">
          <mxGeometry relative="1" as="geometry">
            <mxPoint x="170" y="750" as="sourcePoint" />
            <mxPoint x="120" y="755" as="targetPoint" />
          </mxGeometry>
        </mxCell>
        <mxCell id="AhQzTiy_T6x-37D4Y0-p-7" value="&lt;font style=&quot;font-size: 9px;&quot;&gt;Show error in ui&lt;/font&gt;" style="text;html=1;align=center;verticalAlign=middle;resizable=0;points=[];autosize=1;strokeColor=none;fillColor=none;fontColor=#00994D;fontSize=9;" parent="1" vertex="1">
          <mxGeometry x="65" y="740" width="90" height="20" as="geometry" />
        </mxCell>
      </root>
    </mxGraphModel>
  </diagram>
</mxfile>
